<svg xmlns="http://www.w3.org/2000/svg" xmlns:xlink="http://www.w3.org/1999/xlink">

	<symbol id="headphone" viewBox="0 0 1000 1000">
		<title>headphone</title>
		<path fill="#FF3334" d="M650.6 695.2c-6.7.1-11.3-2.6-14.5-8.2-3.4-5.7-5.7-12-8.5-18-2.1-4.6-4.3-9.2-7.8-13-9.6-10.3-23.2-9-30.7 2.8-5.4 8.6-7.3 18.6-9.7 28.3-2.1 8.7-3.9 17.6-7.5 25.8-.7 1.6-1.2 3.5-3.3 3.4-2.2-.2-2.3-2.2-2.8-3.9-3.9-13.6-5.2-27.6-7-41.6-2.8-22.3-4.2-45-12-66.4-1.8-4.8-4-9.2-7.3-13-7.7-10.7-16.5-8.8-21.8-5.9h-.1c-.3.2-.6.4-1 .6-.8.4-1.5.9-2.2 1.5l-.5.4-.3.2-.8.7v.1c-1.2 1.1-2.2 2.2-3.1 3.5h-.1c-1.9 2.6-3.5 5.7-4.9 9-2.3 5.7-4.1 11.7-5.3 17.7-6.4 30.5-7.1 61.5-10.2 92.3-1.3 13.1-2.8 26.2-6 39-.4 1.4-.4 3.4-2.5 3.4-1.8 0-2.1-1.8-2.6-3-2.5-6.7-4.3-13.5-5.8-20.5-4.1-18.9-6.3-38.1-11.2-56.9-2.2-8.7-4.8-17.4-10.5-24.6-7.7-9.5-20.1-9.6-28.1-.4-2.6 2.9-4.5 6.3-6.1 9.9-6.3 14.5-8.1 30.1-11 45.4-1.7 8.8-3.1 17.6-6.4 26.1-.5 1.3-.9 2.7-2.7 2.7-1.8.1-2.3-1.4-2.8-2.6-1.1-2.9-2.2-5.8-3.2-8.7-3.6-10.4-6.6-21-12.9-30.2-6.5-9.5-15.2-14.2-26.7-14.1-12.5.1-25.1 0-37.7 0-1.8 0-3.7-.3-5.5.7v18.6c1.8.9 3.7.6 5.5.6 11.9 0 23.9.2 35.8-.1 6.6-.1 10.8 2.8 13.8 8.3 3.8 6.8 5.7 14.3 8.3 21.6 2.3 6.8 4.6 13.5 8.8 19.3 9.4 13.2 25.7 12.7 34-1.2 6.7-11.1 8.6-23.7 11.1-36.2 2.2-11.9 3.8-24.1 7.4-35.8.5-1.5 1-2.9 1.6-4.4.5-1.3.8-2.9 2.6-2.7 1.4.1 1.8 1.6 2.2 2.7 2.6 7.1 4.3 14.5 5.8 22 4.1 19.6 6.5 39.6 12.2 59 1.1 3.8 2.5 7.6 4 11.3 3.8 9 9.2 16.5 19.2 19.3h3.7c8.5-2.2 13-8.4 16-16 5.6-14.5 7.4-29.7 9.1-44.9 3.2-28.6 3.8-57.5 8.4-86 1.2-7.4 2.7-14.6 5.1-21.6.5-1.5.7-3.8 2.8-3.8 2.5-.1 2.7 2.2 3.3 3.9 4.2 10.8 5.9 22.1 7.5 33.4 3.2 22.2 4.2 44.7 9.3 66.7 1.4 6 3.3 11.9 6.2 17.4 7.8 14.9 22.7 11.8 30.4 4.5 6.8-6.4 10-14.8 12.5-23.5 3.1-10.8 5.7-21.8 8.6-32.7.5-1.8.5-4.6 3.1-4.7 2.5-.1 2.7 2.6 3.5 4.3 3.3 7.2 6 14.6 10.3 21.3 7 11 16.5 17.1 30.1 16.7 14.1-.5 28.2-.2 42.3-.2v-19.5c-13.8-.1-27.6-.4-41.4-.1zM0 772.4c17.6 7.9 35.2 15.8 54.2 24.3v-165c-19.1 9-36.7 17.3-54.2 25.6v115.1zm783.6-553.5C680.4 127.8 558.2 102.2 425 121.5 234.3 149.3 86.1 311.7 80.4 501.8c-3.2 107-.9 214.2-.5 321.3.2 35.4 26.4 60.7 61.9 61.4 28.4.5 56.8.2 85.2.1 43.6-.2 67.5-23.8 67.7-67.3.1-68.1.1-136.2 0-204.3-.2-45.2-24.7-69.5-70-69.6-24.2-.1-48.4 0-74.5 0-3.7-134.5 46.9-240 160.3-307 130.4-77.1 265.7-74.6 392.9 8.5 104.7 68.4 150.8 170.6 146.7 297.7-26.9 0-51.8-.1-76.8.1-42.5.2-67.7 25.1-67.9 67.6-.3 68.8-.2 137.5 0 206.3.1 42.4 23.1 66.5 65.4 67.8 26.4.8 52.9.5 79.3.1 46.5-.7 70.2-25 70.2-71.7 0-99.8.9-199.7-.3-299.5-1.4-118.1-48.2-216.6-136.4-294.4zm215.9 452c0-4.7-.9-11.9-4-13.9-15.4-9.5-31.7-17.7-49.6-27.4v167.8c14.5-7.6 26.9-14.9 39.8-20.6 10.5-4.6 14.6-10.9 14.3-22.7-.9-27.7-.1-55.4-.5-83.1z"/>
	</symbol>

	<symbol id="sound-wave" viewBox="0 0 1000 1000">
	 	<title>sound-wave</title>
		<path fill="#FF3334" d="M892.3 535.2c-17.4.2-29.2-6.6-37.7-21.1-8.8-15-14.7-31.2-22-46.9-5.5-12.1-11.3-24.1-20.5-34-24.8-26.6-60.3-23.4-79.6 7.3-14.2 22.6-19.2 48.4-25.4 73.8-5.6 22.6-10 45.6-19.5 67.1-1.7 4-3.2 9.1-8.7 8.6-5.5-.4-6-5.8-7.2-9.9-10.1-35.4-13.6-71.9-18.2-108.2-7.3-58.3-10.8-117.2-31.3-173-4.5-12.3-10.3-23.7-18.8-33.5-20-28.1-42.8-23-56.7-15.6l-.2.1c-.9.5-1.8 1-2.6 1.5-2.1 1.2-4 2.5-5.8 3.9-.5.4-1 .7-1.4 1.1-.3.2-.6.4-.8.6-1.3 1.1-2 1.9-2 1.9l-.1.1c-3 2.8-5.6 5.8-8.1 9.1l-.1.1c-5.1 7-9.2 14.9-12.7 23.5-6.2 14.9-10.7 30.3-14 46.1-16.5 79.1-18.3 159.9-26.5 240-3.4 34-7.2 68-15.6 101.3-.9 3.5-1.1 8.8-6.6 8.7-4.5 0-5.4-4.5-6.6-7.7-6.5-17.4-11.2-35.3-15.1-53.4-10.7-49.1-16.5-99.2-29.2-147.9-6-22.6-12.4-45.2-27.4-63.9-19.9-24.7-52.3-25.1-73.1-1.1-6.7 7.6-11.7 16.3-15.8 25.6-16.4 37.7-21 78.3-28.6 118.1-4.4 22.9-8 46-16.6 67.9-1.3 3.3-2.3 7-7 7.1-4.8.2-6-3.7-7.3-6.9-3-7.5-5.7-15-8.3-22.6-9.4-26.9-17.2-54.6-33.6-78.5-16.7-24.5-39.6-36.9-69.4-36.7-32.7.2-65.3 0-98 .1-4.8 0-9.7-.8-14.2 1.7V538c4.5 2.4 9.4 1.7 14.2 1.7 31.1 0 62.1.5 93.1-.2 17.1-.4 28.1 7.2 36 21.5 9.8 17.7 14.7 37.3 21.4 56.2 6.1 17.5 12 35.1 23 50.3 24.5 34.1 66.9 32.8 88.5-3.1 17.4-28.9 22.4-61.7 28.6-94.1 6-31.1 10-62.7 19.4-93.2 1.1-3.8 2.6-7.6 4-11.3 1.3-3.4 2.3-7.6 6.9-7.2 3.7.3 4.8 4.2 5.8 7.1 6.7 18.6 11.2 37.8 15.1 57.1 10.4 51.2 16.7 103.2 31.6 153.5 3 10 6.5 19.9 10.6 29.5 9.8 23.3 23.7 42.9 49.8 50.1h9.7c22.1-5.6 33.6-21.7 41.4-41.7 14.7-37.5 19.3-77.1 23.7-116.7 8.3-74.5 10-149.5 21.8-223.7 3.1-19 7-37.9 13.4-56.2 1.4-3.9 1.6-9.7 7.4-9.9 6.4-.2 7 5.9 8.6 10.1 10.7 28.1 15.2 57.5 19.5 87 8.2 57.7 10.8 116.3 24 173.3 3.7 15.7 8.7 31 16.2 45.4 20.2 38.8 59 30.6 79.1 11.7 17.6-16.7 26.1-38.6 32.5-61.1 8.2-28.2 14.7-56.8 22.3-85.2 1.3-4.6 1.5-11.8 8.1-12.1 6.5-.3 7.1 6.8 9.2 11.3 8.5 18.7 15.6 38 26.8 55.4 18.3 28.4 42.8 44.5 78.2 43.2 36.7-1.3 73.4-.3 110.1-.3v-50.8c-35.9-.3-71.8-1.1-107.7-.4z"/>	
	</symbol>	

	<symbol id="volume" viewBox="0 0 1000 1000">
	 	<title>volume</title>
	 	<path fill="#FF3334" d="M489.1 425.8c.3-64.2.3-128.4.2-192.5 0-26.2-14.9-35-37.8-22.3-80.1 44.4-160 88.9-240.2 133-7.2 4-9.7 8.5-9.7 16.6.3 46.1.2 92.3.2 138.5 0 47.5 0 95-.1 142.6 0 4.7.7 8 5.5 10.6 82.2 44 164.1 88.3 246.4 132.2 20.2 10.8 35.8.7 35.8-22.4-.1-62.8 0-125.7-.2-188.4-.1-6.5 1.6-11.4 5.9-16.5 27.6-32.4 28-79.5.7-112.1-5.1-6-6.7-11.9-6.7-19.3zm473.3-112.6c-30.4-72.7-75.9-134.4-135.8-185.5-3.7-3.2-6.2-5-10.7-.4-18 18.5-36.3 36.7-54.7 54.8-4 4-3.5 6 .7 9.3 11 9 21.7 18.5 31.6 28.7 93.5 96.9 130.8 212.5 110.7 345-14.9 98.4-63.2 179.4-139.9 243.2-4.9 4.1-5.4 6.2-.7 10.8 18.1 17.4 36 35.1 53.4 53.2 5 5.1 7.6 3.9 12.1 0 20.7-18.2 40.3-37.5 57.7-58.8 74.3-90.8 112-194.8 113.2-313.7-.4-63.5-12.5-126.3-37.6-186.6zm-122.9 126c-15.7-82-55.5-149.9-119.2-203.8-5.5-4.6-8.5-4-13.3.9-16.5 17.1-33.2 33.9-50.4 50.3-6 5.7-6.6 8.3.5 14.2 79.6 65.9 110.9 150.5 92.1 251.8-11.1 60.1-42.7 109.3-90.8 147.5-6.1 4.8-6.6 7.3-.8 12.8 16.4 15.7 32.8 31.6 48.1 48.3 7.5 8.3 12.1 7.9 20 .7 77.8-69.7 117.5-156.7 119.6-260.7-.8-21-1.9-41.6-5.8-62zm-687.2-82.1c-36.3.3-72.6-.1-109 0-26.8.1-43.3 17.4-43.3 44.4v198.6c0 24.5 17.7 42.7 42.1 42.8 36.7 0 73.4-.3 110 0 7.1.1 9.2-1.6 9.1-8.9-.3-44.5-.1-89-.1-133.4 0-44.8-.2-89.6.1-134.4.1-7.3-1.8-9.2-8.9-9.1zm456.8-10.6c-3.7-2.9-6.6-6-11.7-.7-18.3 19-37.2 37.6-56 56.2-4.4 4.3-3.2 5.8 1.4 8.6 71.4 42.1 68.1 139.9 2.2 179.3-5.7 3.4-5 5.3-.8 9.4 17.9 17.6 35.8 35.2 53.1 53.4 5.5 5.8 8.9 5.4 14.6.8 47.5-39.3 72.2-89.5 73.8-153.4-1-61.8-26.3-113.8-76.6-153.6z"/>
	</symbol>	 

	<symbol id="movie" viewBox="0 0 1000 1000">
	 	<title>movie</title>
	 	<path fill="#FF3334" d="M501.4.5C226.7-1.6.8 223.4 0 499.7c-.7 275 221.5 498.4 497.6 500C774.5 1001.3 998 780 1000 502.3 1001.9 226.8 779.1 2.6 501.4.5zM500 939.9c-243.2 0-438.4-194.6-439.6-438.3C59.2 257.8 255.8 60.9 500.2 61.1c243.8.2 438.3 194.1 439.4 438.1 1 244-195.2 440.7-439.6 440.7zM378.3 423.2c73.6.3 136-61.8 136.3-135.5.4-73.7-61.5-135.6-135.7-135.9-74.1-.3-136 61.1-136.5 135.3-.4 73.3 62.1 135.9 135.9 136.1zM677 458.9c72.9.7 136-61.7 137-135.4 1-72.7-62-136.4-135.4-137.2-73.1-.7-136.3 61.9-136.9 135.5-.5 73.6 61.4 136.3 135.3 137.1zm36 27.3c-74 .1-135.8 61.8-135.9 135.8 0 73.8 62 135.7 136 135.5 73.8-.1 136.4-62.4 136.1-135.6-.3-74-62.2-135.7-136.2-135.7zM452.1 621.6c-74.7.4-135 61.4-134.5 135.9.5 74.7 61.4 134.6 136.6 134.2 74.7-.5 135.1-61.6 134.5-136.3-.7-74.9-61.1-134.2-136.6-133.8zM379 546.5c-.3-74.8-61.7-135.9-135.7-135.2-74.5.8-134.5 61.9-134.4 136.7.2 74 62.1 135.6 135.9 135.1 74.5-.4 134.6-61.6 134.2-136.6zm85.8-45.8c.1 19.6 16.1 35.2 35.7 35 19.4-.2 35.4-16.4 35-35.7-.2-19.7-16.1-35-35.8-34.8-19.9.2-35 15.6-34.9 35.5z"/>
	</symbol>	
	
	<symbol id="power" viewBox="0 0 1000 1000">
	 	<title>power</title>
	 	<path fill="#FF3334" d="M857 331.7c-22.7-41-51.5-76.9-86.6-108-10.2-9-25.6-7-33.9 3.8-13.7 18-27.3 35.7-40.7 53.3-8.2 10.8-6.3 26.4 3.6 35.7 125 117.8 116.8 305.1 10.5 414.8C600.4 844.2 418 850.8 304.8 745.5c-62.2-57.8-95.8-129.1-96.5-213.6-.7-85.8 31.3-157.3 92.5-215.1 9.9-9.4 11.7-25 3.5-35.8-13.7-17.9-27.2-35.6-40.8-53.3-8.2-10.8-23.7-12.9-33.9-3.9-121.3 106.8-172.4 281.6-114 442.8 62.2 172 239.9 294.9 441.8 266.7 175.9-24.5 326.7-167.5 348.6-358 9.8-86.2-7-167.6-49-243.6zM467.2 470h66c13.6 0 24.6-11 24.6-24.6V87c0-13.6-10.9-24.6-24.6-24.6h-66c-13.6 0-24.6 11-24.6 24.6v358.3c0 13.7 11 24.7 24.6 24.7z"/>
	</symbol>		

</svg>