<svg xmlns="http://www.w3.org/2000/svg" xmlns:xlink="http://www.w3.org/1999/xlink">

	<symbol id="share" viewBox="0 0 1000 1000">
		<title>share</title>
		<path fill="var(--color-svg)" d="M752 598.7c-58.2 0-109.6 29.6-140.2 74.4L397.5 554.3c12.4-23.5 19.5-50.2 19.5-78.7 0-27.7-6.8-53.6-18.6-76.7l162.7-70.8c30.6 44.1 81.6 73.1 139.2 73.1 93.5 0 169.4-76 169.4-169.4s-76-169.3-169.4-169.3-169.4 76-169.4 169.4c0 19.2 3.3 37.5 9.3 54.8l-169 73.5c-31-33.1-74.8-53.9-123.6-53.9-93.5 0-169.4 76-169.4 169.4 0 93.5 76 169.4 169.4 169.4 48.2 0 91.7-20.4 122.6-52.8l221.1 122.4c-5.6 16.8-8.8 34.7-8.8 53.3 0 93.5 76 169.4 169.4 169.4s169.4-76 169.4-169.4S845.5 598.7 752 598.7z"/>
	</symbol>

	<symbol id="cogwheel" viewBox="0 0 24 24">
	 	<title>cogwheel</title>
	 	<g>
	 		<path fill="none" d="M0 0h24v24H0V0z"/>
	 		<path fill="var(--color-svg)" d="M19.43 12.98c.04-.32.07-.64.07-.98 0-.34-.03-.66-.07-.98l2.11-1.65c.19-.15.24-.42.12-.64l-2-3.46a.5.5 0 0 0-.61-.22l-2.49 1c-.52-.4-1.08-.73-1.69-.98l-.38-2.65A.488.488 0 0 0 14 2h-4c-.25 0-.46.18-.49.42l-.38 2.65c-.61.25-1.17.59-1.69.98l-2.49-1a.566.566 0 0 0-.18-.03c-.17 0-.34.09-.43.25l-2 3.46c-.13.22-.07.49.12.64l2.11 1.65c-.04.32-.07.65-.07.98 0 .33.03.66.07.98l-2.11 1.65c-.19.15-.24.42-.12.64l2 3.46a.5.5 0 0 0 .61.22l2.49-1c.52.4 1.08.73 1.69.98l.38 2.65c.03.24.24.42.49.42h4c.25 0 .46-.18.49-.42l.38-2.65c.61-.25 1.17-.59 1.69-.98l2.49 1c.06.02.12.03.18.03.17 0 .34-.09.43-.25l2-3.46c.12-.22.07-.49-.12-.64l-2.11-1.65zm-1.98-1.71c.04.31.05.52.05.73 0 .21-.02.43-.05.73l-.14 1.13.89.7 1.08.84-.7 1.21-1.27-.51-1.04-.42-.9.68c-.43.32-.84.56-1.25.73l-1.06.43-.16 1.13-.2 1.35h-1.4l-.19-1.35-.16-1.13-1.06-.43c-.43-.18-.83-.41-1.23-.71l-.91-.7-1.06.43-1.27.51-.7-1.21 1.08-.84.89-.7-.14-1.13c-.03-.31-.05-.54-.05-.74s.02-.43.05-.73l.14-1.13-.89-.7-1.08-.84.7-1.21 1.27.51 1.04.42.9-.68c.43-.32.84-.56 1.25-.73l1.06-.43.16-1.13.2-1.35h1.39l.19 1.35.16 1.13 1.06.43c.43.18.83.41 1.23.71l.91.7 1.06-.43 1.27-.51.7 1.21-1.07.85-.89.7.14 1.13zM12 8c-2.21 0-4 1.79-4 4s1.79 4 4 4 4-1.79 4-4-1.79-4-4-4zm0 6c-1.1 0-2-.9-2-2s.9-2 2-2 2 .9 2 2-.9 2-2 2z"/>	
	 	</g>
	</symbol>	

	<symbol id="chart-histogram" viewBox="0 0 1000 1000">
	 	<title>chart-histogram</title>
	 	<path fill="var(--color-svg)" d="M275 595c-38.4 42.3-76.8 84.5-115.3 126.7-15.8 17.3-24.9 17.5-41.8 1-8.3-8.1-16.5-16.2-24.8-24.4C81.5 687 62 695.2 62 711.4v270.2c0 10.1 8.2 18.3 18.3 18.3h208.2c10.1 0 18.3-8.2 18.3-18.3V607.3c0-16.8-20.6-24.7-31.8-12.3zm312.2-17.1c-20.9 22.7-41.8 45.4-62.7 68-16.2 17.6-25.2 17.7-42.8 1.2-23.3-21.8-46.7-43.6-70.1-65.4-12.9-12.1-34-2.9-34 14.8v383.2c0 11.2 9.1 20.2 20.2 20.2h204.3c11.2 0 20.2-9.1 20.2-20.2V591.6c0-18.4-22.6-27.2-35.1-13.7zM926 401.1c-2.3-1.2-4.5-2.9-6.6-4.9-23.2-23.1-46.5-46.1-69.4-69.6-4.1-4.2-9.7-6.6-15.6-6.6h-.2c-6.1 0-11.9 2.6-16.1 7.1-39.9 43.4-79.8 86.8-119.8 130.1-3.7 4-5.8 9.3-5.8 14.8v506.2c0 12.1 9.8 21.8 21.8 21.8h201.2c12.1 0 21.8-9.8 21.8-21.8V419.3c.3-7.8-4.4-14.5-11.3-18.2zM523.2 546.6c96-104.1 192.1-208.2 287.8-312.5 6.5-7.1 10.1-7.6 16.9-.4 24 25 48.8 49.3 73.3 73.7 10.9 10.8 25.5 9.6 32.4-2.5 2.8-4.9 3.1-10.4 3.2-15.9 0-88.7.1-177.4 0-266.1 0-15.4-8.2-23-24.3-23-44.4.1-89 .1-133.5.1s-89.1.1-133.6-.1c-10.1 0-18.2 3.1-21.9 12.9-3.5 9.2-.2 16.7 6.7 23.6 27.3 26.9 54 54.4 81.5 81.1 7.3 7 8.2 11 .9 19-71.3 78.7-142.2 157.8-212.8 237.1-6.8 7.7-10.4 6.6-17 .6-43-39.5-86.3-78.7-129.4-118-13.7-12.5-23.7-12.6-35.8.5-82.2 89.5-164.4 179-246.5 268.7-11.5 12.6-11 22 1.2 34L134 620c16.1 15.8 24.9 15.6 40-1 56.3-61.8 112.6-123.6 168.6-185.6 6-6.7 9.6-7.2 16.3-.8 40.9 38.6 82.2 76.7 123.2 115 17 15.9 25.6 15.8 41.1-1z"/>
	</symbol>	 

	<symbol id="instagram" viewBox="0 0 1000 1000">
	 	<title>instagram</title>
	 	<path fill="var(--color-svg)" dur="1s" d="M499 243a257 257 0 1 0 1 514 257 257 0 0 0-1-514zm0 415a159 159 0 1 1 0-318 159 159 0 0 1 0 318zM709 5H289A285 285 0 0 0 5 290v419c0 157 127 285 284 285h420c157 0 285-128 285-285V290C994 133 866 5 709 5zm187 704c0 103-84 187-187 187H289c-103 0-186-84-186-187V290c0-103 83-187 186-187h420c103 0 187 84 187 187v419zM760 169a67 67 0 1 0 0 134 67 67 0 0 0 0-134z"/>
	</symbol>	

	<symbol id="vk" viewBox="0 0 1000 1000">
	 	<title>vk</title>
	 	<path fill="var(--color-svg)" d="M491 747h52s16-1 24-10c7-8 7-23 7-23s-1-70 32-80c32-11 73 67 117 97 33 23 58 18 58 18l117-2s61-3 32-51c-3-4-17-36-87-101-73-68-64-57 25-174 53-72 75-116 68-135-6-17-46-13-46-13l-131 1s-10-1-17 3-12 14-12 14-21 56-48 103c-59 99-82 105-92 98-22-14-17-57-17-88 0-97 15-137-28-147-15-4-25-6-62-6-47-1-86 0-109 11-15 7-26 24-19 24 8 2 28 6 38 20 14 18 13 59 13 59s8 114-18 128c-17 10-42-10-94-100-27-46-47-98-47-98s-4-9-11-14c-8-6-20-8-20-8H91s-19 1-26 9c-6 7 0 22 0 22s98 229 209 345c101 105 217 98 217 98"/>
	</symbol>	

	<symbol id="google-plus" viewBox="0 0 1000 1000">
	 	<title>google-plus</title>
	 	<path fill="var(--color-svg)" d="M340.9 221.8C187 221.8 62.5 346.2 62.5 500.2S187 778.6 340.9 778.6c160.7 0 267.3-112.9 267.3-272 0-18.3 0-32.3-4.4-46.2H340.9V556h157.9c-6.4 40.8-47.8 120-157.9 120-95 0-172.6-78.9-172.6-175.8s77.6-175.8 172.6-175.8c54.2 0 90.4 23.1 110.9 43l75.7-72.7c-48.6-45.4-111.4-72.9-186.6-72.9zm437.5 159.1v79.5h-79.7V540h79.7v79.5h79.5V540h79.7v-79.7h-79.7v-79.5h-79.5z"/>
	</symbol>	

	<symbol id="facebook" viewBox="0 0 1000 1000">
	 	<title>facebook</title>
	 	<path fill="var(--color-svg)" d="M703.2 345.8H564.6V255c0-34.1 22.7-42.1 38.6-42.1h97.6V63l-134.6-.5C416.9 62.5 383 174.3 383 245.9v99.9h-86.4v154.4H383v437.2h181.7V500.3h122.6l15.9-154.5z"/>
	</symbol>	

	<symbol id="linkedin" viewBox="0 0 1000 1000">
	 	<title>linkedin</title>
	 	<path fill="var(--color-svg)" d="M870.5 62.4h-741c-35.5 0-64.3 28.1-64.3 62.8v749.6c0 34.7 28.8 62.7 64.3 62.7h741c35.5 0 64.3-28 64.3-62.7V125.1c-.1-34.6-28.9-62.7-64.3-62.7zM328.8 794.8H197.5v-395h131.3v395zm-65.6-448.9h-.9c-44.1 0-72.5-30.3-72.5-68.3 0-38.8 29.4-68.3 74.2-68.3 45 0 72.6 29.5 73.4 68.3 0 38-28.4 68.3-74.2 68.3zm539.2 448.9H671V583.5c0-53.1-18.9-89.3-66.4-89.3-36.4 0-58 24.4-67.5 48-3.4 8.5-4.2 20.3-4.2 32V795H401.5s1.7-358 0-395.1h131.4v55.9c17.4-26.9 48.7-65.2 118.3-65.2 86.4 0 151.2 56.5 151.2 177.9v226.3z"/>
	</symbol>	

	<symbol id="youtube" viewBox="0 0 1000 1000">
	 	<title>youtube</title>
	 	<path fill="var(--color-svg)" d="M332.8 256v135h48.8V257l29.4-93.9c16.2-51.6 30-95.4 30.7-97.2 1.1-2.8-3.5-3.4-24.3-3.4h-25.8L388 75.3c-2 7-9.5 35-16.6 62.1s-13.5 49.3-14.2 49.3-8.3-26.9-17-59.7c-8.7-32.9-16.4-60.8-17.2-62.1-.9-1.4-11.6-2.1-25.9-1.7l-24.4.7 30.1 96.1 30 96zM604 377.1c2.5 5.1 7.4 10.8 11 12.7 8.2 4.4 25 4.6 35 .3 4.3-1.8 13-7.9 19.4-13.6l11.6-10.3V391h46.2V145.2H681V334l-8.8 9.1c-9.9 10.2-18.7 13.5-24.1 9-3.1-2.6-3.6-17.7-3.6-104.9v-102h-46.4l.7 111.3c.5 103.4.9 112.1 5.2 120.6zm-152.1-2.6c8.1 8.8 14.8 13.4 24.6 16.7 16.5 5.7 24.7 5.8 41.2.9 17.6-5.2 34.9-21.5 40.8-38.4 3.8-11 4.4-21.5 4.4-84.4 0-79.4-1.2-87.4-15.8-105.1-22-26.7-73.7-27.5-96-1.4-15.9 18.6-17.1 26.1-17.1 105.3-.1 82.3.8 87.8 17.9 106.4zm29.8-179.1c6.2-13.5 27.3-13.5 33.4 0 1.8 4 2.8 28.7 2.8 74.2 0 71.3-1.1 79.6-11.1 83.4-2.2.8-6.3 1.4-9.2 1.3-17.6-.6-18.7-5.3-18.7-84.8 0-45.4.9-70.1 2.8-74.1zm98.9 440.4c-5.6-1.9-8.9-1.3-17.6 3.3l-10.8 5.7V794l9.1 5.3c11.7 6.8 15.8 6.7 24.2-.5l6.8-5.9.7-67.8c.9-75.8-.4-85.1-12.4-89.3zM863 661.6c-.7-43.7-2.6-90.5-4.1-103.8-7.9-70.8-30.4-105-76.8-116.6-23.7-5.9-89.4-8.9-228.7-10.4-129.1-1.4-261.8 1.4-312.7 6.6-51.8 5.3-80.2 30.8-92.3 82.9-13.3 57.5-16.1 224.3-5 304.3 3.2 22.8 13.1 52.7 21.9 66 21.9 33.1 54.1 41.5 173 45.5 80 2.7 319.5 1.2 378.1-2.3 54-3.2 66.5-5.4 85.6-14.7 50.7-24.8 64-80.9 61-257.5zM323.4 561.4h-26.8v279.9H248V561.4h-51.2v-46.2h153.4v46.2h-26.8zm148.4 158.2v121.7h-46.2v-25l-10.7 9.8c-5.9 5.4-14 11.6-18.1 13.7-10.8 5.6-31.6 4.9-39.9-1.3-13.1-9.8-14-19-14-135.3V597.9h46.2v99.6c0 87.3.5 100.1 3.8 103.4 6 6 10.6 4.6 22.1-6.8l10.6-10.6V597.9h46.2v121.7zm167.6 11c-.8 78.9-.9 80.5-6.6 92.1-3.3 6.6-9.1 13.8-13.4 16.4-9 5.5-28.3 6-39.6 1.1-4.2-1.8-12.1-7.4-17.6-12.4l-10-9v22.4h-43.8v-326h43.8v105.2l11.9-10.7c10.9-9.8 25.2-16.5 35.2-16.5 10.4 0 23.8 8.2 29.5 17.9 10 17.4 11.4 33 10.6 119.5zm162.9 46.8c-1.9 32.5-12.4 50.6-36 61.2-16.7 7.6-43.8 7-60.4-1.2-14.7-7.3-25.4-19.3-31.3-34.9-3.5-9.2-4.4-22.2-5.2-75.6-1.2-82.2 1.9-98.3 22.5-116.4 12.6-11.1 24.7-15.6 42.6-15.9 21.7-.4 36.1 5.5 49.5 20.4 15.2 16.9 18.7 31.2 18.7 76.2v35.7h-87.6v28.6c0 22.4.9 30.4 4.3 37.1 5.5 11 17 14.8 26.2 8.8 8.2-5.4 10.9-13.1 10.9-30.8v-14.4h47l-1.2 21.2zm-45.7-87v-18.3c0-23.2-4.3-34.2-14.1-36.3-19.5-4.3-27.3 6-27.3 36.3v18.3h41.4z"/>
	</symbol>	

	<symbol id="mail" viewBox="0 0 31.012 31.012">
	 	<title>mail</title>
	 	<g fill="var(--color-svg)">
	 		<path d="M25.109 21.51a.495.495 0 0 1-.342-.136l-5.754-5.398a.5.5 0 1 1 .685-.728l5.754 5.398a.5.5 0 0 1-.343.864zM5.902 21.51a.5.5 0 0 1-.343-.864l5.756-5.398a.5.5 0 0 1 .685.728l-5.756 5.398a.495.495 0 0 1-.342.136z"/>
	 		<path d="M28.512 26.529H2.5a2.503 2.503 0 0 1-2.5-2.5V6.982c0-1.379 1.122-2.5 2.5-2.5h26.012c1.378 0 2.5 1.121 2.5 2.5v17.047c0 1.379-1.122 2.5-2.5 2.5zM2.5 5.482c-.827 0-1.5.673-1.5 1.5v17.047c0 .827.673 1.5 1.5 1.5h26.012c.827 0 1.5-.673 1.5-1.5V6.982c0-.827-.673-1.5-1.5-1.5H2.5z"/>
	 		<path d="M15.506 18.018c-.665 0-1.33-.221-1.836-.662L.83 6.155a.501.501 0 0 1-.049-.706.503.503 0 0 1 .706-.048l12.84 11.2c.639.557 1.719.557 2.357 0L29.508 5.419a.5.5 0 0 1 .658.754L17.342 17.355c-.507.442-1.171.663-1.836.663z"/>	
	 	</g>
	</symbol>	

	<symbol id="phone" viewBox="0 0 1000 1000">
	 	<title>phone</title>
	 	<path fill="var(--color-svg)" d="M715.8 0H284.5c-47.8 0-87 39.2-87 87v826c0 47.8 39.2 87 87 87h431.3c47.9 0 87-39.2 87-87V87c0-47.8-39.1-87-87-87zM429 35.9h142.4c7.2 0 13 4 13 8.8 0 4.8-5.9 8.8-13 8.8H429c-7.2 0-13-4-13-8.8-.1-4.9 5.8-8.8 13-8.8zm71.2 920c-37.2 0-67.3-30.2-67.3-67.3 0-37.1 30.1-67.3 67.3-67.3s67.3 30.2 67.3 67.3c0 37.2-30.1 67.3-67.3 67.3zM753 750.1c0 23.9-19.6 43.5-43.5 43.5H290.8c-23.9 0-43.5-19.6-43.5-43.5V130.2c0-23.9 19.6-43.5 43.5-43.5h418.7c23.9 0 43.5 19.6 43.5 43.5v619.9z"/>
	</symbol>	

	<symbol id="google-map" viewBox="0 0 1000 1000">
	 	<title>google-map</title>
	 	<path fill="var(--color-svg)" d="M787.6 280.3c-3.1-11.6-9.4-24.2-14.1-35-56-134.6-178.3-182.8-277.1-182.8-132.3 0-277.9 88.6-297.3 271.4v37.4c0 1.6.5 15.6 1.3 22.6 10.9 87.1 79.6 179.6 131 266.8 55.2 93.4 112.5 185.1 169.3 276.9 35-59.9 69.9-120.6 104.1-178.9 9.4-17.1 20.1-34.2 29.5-50.6 6.2-10.9 18.1-21.8 23.5-31.9 55.2-101.1 144.1-203 144.1-303.3v-41.3c0-10.9-13.5-49-14.3-51.3zM498.8 467.7c-38.9 0-81.4-19.4-102.4-73.1-3.2-8.6-2.9-25.7-2.9-27.2v-24.1c0-68.4 58.1-99.6 108.7-99.6 62.2 0 110.3 49.8 110.3 112s-51.5 112-113.7 112z"/>
	</symbol>

	<symbol id="blog" viewBox="0 0 1000 1000">
	 	<title>blog</title>
	 	<path fill="var(--color-svg)" d="M98.8 386.9h48.6v53.5H98.8v-53.5zm24.3 140.7c-13.4 0-24.3 11-24.3 24.6s10.9 24.6 24.3 24.6 24.3-11 24.3-24.6-10.9-24.6-24.3-24.6zM98.8 666.2h48.6v53.5H98.8v-53.5zm793-311.7L781.3 459.1c-1.7 1.6-3.2 5-3.2 7.4v270.8H245.2v-371h433.6c2.4 0 5.7-1.4 7.4-3l112.2-110.2c1.7-1.7 1.1-3-1.3-3H18.3C8.2 250.1 0 258.4 0 268.6v566.5c0 10.2 8.2 18.5 18.3 18.5h858.4c9.4 0 17.3-7.3 18.2-16.7.1-.6.1-1.2.1-1.8V355.9c0-2.4-1.4-3-3.2-1.4zM176.4 734.4c0 8.1-6.5 14.7-14.5 14.7H84.3c-8 0-14.5-6.6-14.5-14.7v-82.8c0-8.1 6.5-14.7 14.5-14.7h77.6c8 0 14.5 6.6 14.5 14.7v82.8zm-53.3-128.3c-29.4 0-53.3-24.2-53.3-53.9s23.9-53.9 53.3-53.9 53.3 24.2 53.3 53.9-23.9 53.9-53.3 53.9zm53.3-151c0 8.1-6.5 14.6-14.5 14.6H84.3c-8 0-14.5-6.5-14.5-14.6v-82.8c0-8.1 6.5-14.7 14.5-14.7h77.6c8 0 14.5 6.6 14.5 14.7v82.8zm736.8-206.2L879 214.3c-1.6-1.7-4.4-1.7-6.1 0L577.3 513.1l-22.7 83.6 82.7-23 295.6-298.8c1.7-1.7 1.7-4.4 0-6.2l-19.7-19.8zm85.5-46.7l-53.8-54.4c-1.7-1.7-4.4-1.7-6.1 0l-40.6 41c-1.7 1.7-1.7 4.5 0 6.2l53.3 53.9 1.8 1.8s2.6 1 3.6 0l41.8-42.3c1.7-1.7 1.7-4.5 0-6.2z"/>
	</symbol>	

	<symbol id="about" viewBox="0 0 1000 1000">
	 	<title>about</title>
	 	<path fill="var(--color-svg)" d="M.1 588.9c16.6-154.4 144.9-209 163.7-216.2-31.9-25.2-52.3-63.9-52.3-107.1 0-76 62.9-137.6 140.4-137.6s140.5 61.6 140.5 137.6c0 42.9-20 81.2-51.4 106.4 26.3 9.3 52.1 23.1 75.2 41.2-61.2 30.5-195.6 118.5-216 308.4v4.7C82.1 718.9 70 686.8 70 686.8c-7.5-7.3-13.4-16.2-16.9-27.4-17.2-4-28-14.3-28-14.3s-26.4-9.8-25-56.2zm492.3-170.8c-27.9 10.7-217.9 91.6-242.5 320.3-2 68.8 37.1 83.3 37.1 83.3s16.1 15.3 41.6 21.2c5.2 16.5 13.8 29.8 25 40.6 0 0 18.7 50 207 59.2 2.8.5 5.5.9 8.3 1.5h118.6c4.6-.8 9.3-1.6 14.1-2.4C895 929 915.4 868.6 915.4 868.6v-.1c5.1-7.5 9.4-16 12.5-25.6 88-17.4 81.1-122.2 54.7-202.6C945.9 528.6 852.7 451.6 755 417.1c46.5-37.4 76.2-94.1 76.2-157.7 0-112.6-93.2-203.9-208.1-203.9S415 146.8 415 259.4c-.1 64.1 30.2 121.3 77.4 158.7z"/>
	</symbol>	

	<symbol id="page" viewBox="0 0 1000 1000">
	 	<title>page</title>
	 	<path fill="var(--color-svg)" d="M828.1 62.5H171.9c-30.1 0-54.7 24.6-54.7 54.7v765.6c0 30.1 24.6 54.7 54.7 54.7h656.2c30.1 0 54.7-24.6 54.7-54.7V117.2c0-30.1-24.6-54.7-54.7-54.7zM308.6 226.6h218.7c15.1 0 27.4 12.3 27.4 27.3 0 15.1-12.3 27.4-27.4 27.4H308.6c-15.1 0-27.3-12.3-27.3-27.4-.1-15 12.3-27.3 27.3-27.3zm382.9 546.8H308.6c-15.1 0-27.3-12.3-27.3-27.4 0-15 12.3-27.4 27.3-27.4h382.8c15.1 0 27.3 12.3 27.3 27.4 0 15.1-12.3 27.4-27.2 27.4zm0-164H308.6c-15.1 0-27.3-12.3-27.3-27.4 0-15 12.3-27.3 27.3-27.3h382.8c15.1 0 27.3 12.3 27.3 27.3.1 15-12.3 27.4-27.2 27.4zm0-164.1H308.6c-15.1 0-27.3-12.3-27.3-27.3 0-15.1 12.3-27.4 27.3-27.4h382.8c15.1 0 27.3 12.3 27.3 27.4.1 15-12.3 27.3-27.2 27.3z"/>
	</symbol>			

</svg>