<svg xmlns="http://www.w3.org/2000/svg" xmlns:xlink="http://www.w3.org/1999/xlink">

	<symbol id="telegram" viewBox="0 0 64 64">
		<title>telegram</title>
		<g transform="matrix(1,0,0,1,-151,-78)"><g transform="matrix(1,0,0,1,151,78)"><rect height="64" style="fill:none;" width="64" x="0" y="0"/><g transform="matrix(1.09879,0,0,1.09879,-169.61,-90.6775)"><path d="M184.478,108.606C181.004,111.803 177.613,114.829 177.613,114.829C177.144,115.247 177.104,115.966 177.522,116.435C177.94,116.903 178.659,116.944 179.128,116.526C179.128,116.526 188.011,108.597 191.804,104.804C192.383,104.226 192.557,103.783 192.588,103.599C192.667,103.131 192.503,102.801 192.267,102.561C192.094,102.384 191.837,102.216 191.443,102.199C191.25,102.191 190.821,102.266 190.243,102.538C186.937,104.093 173.791,112.851 173.791,112.851C173.268,113.199 173.127,113.906 173.475,114.428C173.824,114.951 174.531,115.092 175.053,114.744C175.053,114.744 179.946,111.48 184.478,108.606Z"/></g><g transform="matrix(1,0,0,1,-151,-78)"><path d="M183,80.75C166.856,80.75 153.75,93.856 153.75,110C153.75,126.144 166.856,139.25 183,139.25C199.144,139.25 212.25,126.144 212.25,110C212.25,93.856 199.144,80.75 183,80.75ZM183,83.25C197.764,83.25 209.75,95.236 209.75,110C209.75,124.764 197.764,136.75 183,136.75C168.236,136.75 156.25,124.764 156.25,110C156.25,95.236 168.236,83.25 183,83.25Z"/></g><g transform="matrix(1.09879,0,0,1.09879,-169.61,-90.6775)"><path d="M173.509,114.698L175.943,122.616C175.952,122.645 175.962,122.674 175.973,122.702C176.232,123.352 176.492,123.73 176.678,123.909C177.014,124.233 177.359,124.308 177.645,124.3C178.047,124.288 178.695,124.048 178.952,123.095C178.97,123.025 178.983,122.954 178.988,122.882L179.356,117.814C179.356,117.814 188.971,124.886 188.971,124.886C189.959,125.636 190.847,125.795 191.52,125.59C192.214,125.378 192.886,124.742 193.204,123.388C193.206,123.38 193.208,123.372 193.209,123.364L197.955,101.001C198.238,99.81 198.079,98.92 197.692,98.4C197.243,97.795 196.394,97.384 194.95,97.774C194.911,97.784 194.872,97.797 194.835,97.812L166.959,108.623C166.916,108.64 166.874,108.66 166.833,108.681C165.512,109.39 165.218,110.201 165.214,110.726C165.209,111.433 165.705,112.117 166.547,112.455C166.572,112.465 166.597,112.475 166.623,112.483L173.509,114.698ZM195.816,99.919C195.805,100.081 195.783,100.301 195.739,100.486C195.736,100.496 195.734,100.506 195.732,100.516L190.987,122.876C190.947,123.041 190.868,123.23 190.815,123.348C190.689,123.286 190.488,123.181 190.343,123.07C190.337,123.066 190.332,123.062 190.326,123.058L179.044,114.761C178.711,114.516 178.27,114.471 177.894,114.644C177.518,114.818 177.266,115.182 177.236,115.595L177.031,118.412L175.509,113.463C175.4,113.108 175.124,112.828 174.77,112.714L168.176,110.592L195.593,99.958C195.667,99.941 195.745,99.928 195.816,99.919Z"/></g><g transform="matrix(1.09879,0,0,1.09879,-169.61,-90.6775)"><path d="M178.391,124.017L183.337,119.746C183.812,119.336 183.865,118.617 183.455,118.142C183.044,117.667 182.325,117.614 181.85,118.024L176.905,122.295C176.429,122.705 176.377,123.424 176.787,123.899C177.197,124.375 177.916,124.427 178.391,124.017Z"/></g></g></g>
	</symbol>

	<symbol id="vk" viewBox="0 0 50 50">
	 	<title>vk</title>
        <path  fill="none" stroke="var(--fill)" stroke-miterlimit="10" stroke-width="2" d="M25 3A22 22 0 1 0 25 47A22 22 0 1 0 25 3Z"/><path stroke="transparent" stroke-miterlimit="10" stroke-width="2" d="M34.973,29.535c2.237,1.986,2.702,2.695,2.778,2.816C38.678,33.821,36.723,34,36.723,34h-4.12c0,0-1.003,0.011-1.86-0.557c-1.397-0.915-2.86-2.689-3.889-2.381C25.992,31.32,26,32.486,26,33.483C26,33.84,25.693,34,25,34s-0.981,0-1.288,0c-2.257,0-4.706-0.76-7.149-3.313c-3.456-3.609-6.487-10.879-6.487-10.879s-0.179-0.366,0.016-0.589c0.221-0.25,0.822-0.218,0.822-0.218L14.909,19c0,0,0.376,0.071,0.646,0.261c0.223,0.156,0.347,0.454,0.347,0.454s0.671,2.216,1.526,3.629c1.67,2.758,2.447,2.827,3.014,2.531C21.27,25.445,21,22.513,21,22.513s0.037-1.259-0.395-1.82c-0.333-0.434-0.97-0.665-1.248-0.701c-0.225-0.029,0.151-0.423,0.63-0.648C20.627,19.059,21.498,18.986,23,19c1.169,0.011,1.506,0.081,1.962,0.186C26.341,19.504,26,20.343,26,23.289c0,0.944-0.13,2.271,0.582,2.711c0.307,0.19,1.359,0.422,3.231-2.618c0.889-1.441,1.596-3.834,1.596-3.834s0.146-0.263,0.373-0.393c0.232-0.133,0.225-0.13,0.543-0.13c0.318,0,3.507-0.025,4.207-0.025c0.699,0,1.355-0.008,1.468,0.402c0.162,0.589-0.515,2.607-2.234,4.797C32.944,27.793,32.63,27.457,34.973,29.535z"/>
	</symbol>

	<symbol id="whatsapp" viewBox="0 0 25 25">
	 	<title>whatsapp</title>
		<g fill="none" stroke="var(--fill)" stroke-linecap="round" stroke-linejoin="round"><path d="M12 .5a11.5 11.5 0 0 0-9.54 17.92L.5 23.5l5.23-1.87A11.5 11.5 0 1 0 12 .5Z"/><path d="M9.5 14.5c1.3 1.3 4.17 3 5.5 3a2.53 2.53 0 0 0 2.5-2v-1s-1.23-.6-2-1-2 1-2 1A6.52 6.52 0 0 1 11 13a6.52 6.52 0 0 1-1.5-2.5s1.4-1.23 1-2-1-2-1-2h-1a2.53 2.53 0 0 0-2 2.5c0 1.33 1.7 4.2 3 5.5Z"/></g>
	</symbol>

	<symbol id="mail" viewBox="0 0 1280 1280">
	 	<title>mail</title>
		<g transform="translate(0.0,1280) scale(0.1,-0.1)"
		 stroke="none">
		<path d="M6145 12794 c-216 -13 -391 -28 -530 -45 -995 -122 -1927 -467 -2760
		-1022 -907 -604 -1648 -1433 -2146 -2402 -395 -769 -615 -1549 -690 -2450 -17
		-193 -17 -757 0 -950 75 -901 295 -1681 690 -2450 610 -1188 1578 -2156 2766
		-2766 769 -395 1549 -615 2450 -690 193 -17 757 -17 950 0 901 75 1681 295
		2450 690 1187 610 2156 1579 2766 2766 395 769 615 1549 690 2450 17 193 17
		757 0 950 -75 901 -295 1681 -690 2450 -610 1188 -1578 2156 -2766 2766 -753
		387 -1531 610 -2390 684 -164 15 -666 27 -790 19z m739 -779 c1098 -94 2121
		-499 3001 -1188 401 -314 804 -738 1106 -1162 598 -840 944 -1793 1030 -2840
		16 -193 16 -657 0 -850 -114 -1385 -693 -2628 -1672 -3591 -960 -942 -2172
		-1494 -3524 -1605 -193 -16 -657 -16 -850 0 -1352 111 -2561 661 -3523 1605
		-979 960 -1561 2210 -1673 3591 -15 193 -15 657 0 850 112 1384 693 2629 1678
		3596 872 856 1985 1403 3183 1563 416 55 832 66 1244 31z"/>
		<path d="M6243 9900 c-599 -30 -1099 -153 -1593 -391 -700 -338 -1201 -845
		-1574 -1594 -243 -489 -383 -999 -427 -1559 -24 -300 -3 -755 46 -1042 86
		-495 280 -996 532 -1378 437 -659 1157 -1110 2098 -1315 431 -94 797 -126
		1335 -118 357 5 535 20 811 67 658 113 1232 361 1674 725 117 97 315 297 403
		408 88 111 201 285 266 408 31 58 56 109 56 112 0 4 -179 7 -397 6 l-398 0
		-70 -85 c-383 -467 -995 -774 -1767 -888 -417 -62 -1044 -62 -1461 -1 -613 91
		-1144 302 -1522 606 -399 321 -703 812 -845 1364 -161 627 -103 1399 156 2085
		234 616 591 1076 1089 1402 403 264 849 411 1430 469 155 16 596 16 750 0 657
		-66 1150 -278 1532 -659 368 -366 574 -801 624 -1317 16 -168 7 -447 -21 -610
		-110 -651 -497 -1248 -1004 -1553 -115 -69 -247 -110 -311 -96 -102 22 -136
		109 -110 287 17 124 12 97 205 1037 39 190 75 365 80 390 5 25 41 200 80 390
		39 190 75 365 80 390 5 25 41 200 80 390 39 190 74 360 77 378 l6 32 -495 0
		-495 0 -43 -197 c-23 -109 -45 -204 -49 -210 -4 -8 -27 15 -61 63 -145 203
		-363 345 -622 407 -82 19 -121 22 -318 21 -196 0 -239 -3 -330 -22 -323 -70
		-595 -215 -838 -447 -401 -382 -700 -952 -806 -1535 -43 -233 -59 -589 -36
		-795 44 -390 180 -700 415 -944 200 -208 438 -340 716 -397 104 -21 385 -30
		490 -15 292 42 546 164 773 372 31 28 58 50 59 48 1 -2 11 -29 21 -59 41 -122
		140 -241 245 -295 98 -49 190 -67 378 -72 821 -25 1517 364 2027 1134 400 604
		557 1283 470 2023 -59 502 -248 997 -532 1394 -481 671 -1299 1095 -2267 1175
		-186 15 -434 20 -612 11z m62 -2275 c248 -52 448 -262 519 -546 37 -149 47
		-377 25 -577 -26 -242 -111 -572 -215 -830 -99 -247 -188 -388 -343 -543 -155
		-155 -303 -233 -497 -260 -215 -30 -398 34 -549 193 -151 158 -225 403 -225
		747 0 444 161 1041 363 1346 236 357 592 539 922 470z"/>
		</g>
	</symbol>

	<symbol id="arrow" viewBox="0 0 24 24" fill="none">
	 	<title>arrow</title>
		<g id="Icons" stroke="none" stroke-width="1" fill="none" fill-rule="evenodd" stroke-linecap="round" stroke-linejoin="round">
        <g id="24-px-Icons" transform="translate(-219.000000, -122.000000)" stroke="var(--fill)">
            <g id="ic_send" transform="translate(216.000000, 120.000000)">
                <g id="send">
                    <g transform="translate(4.000000, 3.000000)" stroke-width="2">
                        <polygon id="Path-32" points="0 0 17 9 0 18 5 9"></polygon>
                    </g>
                </g>
            </g>
        </g>
    </g>
	</symbol>

</svg>
