<?xml version="1.0" encoding="iso-8859-1"?>

<svg version="1.1" id="Capa_1" xmlns="http://www.w3.org/2000/svg" xmlns:xlink="http://www.w3.org/1999/xlink" x="0px" y="0px"
	 viewBox="0 0 512 512">
	<g>
		<path d="M256,0C114.609,0,0,114.609,0,256c0,141.391,114.609,256,256,256c141.391,0,256-114.609,256-256
			C512,114.609,397.391,0,256,0z M256,472c-119.297,0-216-96.703-216-216S136.703,40,256,40s216,96.703,216,216S375.297,472,256,472
			z" fill="#ffffff"/>
		<path d="M320,128H160v256h192V164.578L320,128z M176,368V144h128v32h32v192H176z" fill="#ffffff"/>
		<rect x="192" y="272" width="128" height="16" fill="#ffffff"/>
		<rect x="192" y="240" width="128" height="16" fill="#ffffff"/>
		<rect x="192" y="192" width="64" height="16" fill="#ffffff"/>
		<rect x="192" y="160" width="32" height="16" fill="#ffffff"/>
		<rect x="192" y="304" width="128" height="16" fill="#ffffff"/>
		<rect x="192" y="336" width="128" height="16" fill="#ffffff"/>
	</g>
</svg>
