<svg xmlns="http://www.w3.org/2000/svg" xmlns:xlink="http://www.w3.org/1999/xlink">

	<symbol id="warranty" viewBox="0 0 64 100">
		<title>warranty</title>
		<path fill="#7F7F7F" d="M55.8.9H9.9c-.6 0-1.1.5-1.2 1.2v59.8c0 .7.6 1.2 1.2 1.2h45.9c.7 0 1.3-.6 1.3-1.2V2.1c0-.7-.6-1.2-1.3-1.2zm-1.3 59.7H11.1V3.4h43.4v57.2z"/>
		<path fill="#7F7F7F" d="M38.3 36.1l-.7.7a8.3 8.3 0 0 0 1.3 11.7v8.8c0 .7.6 1.3 1.3 1.3.3 0 .5-.1.8-.3l3.3-2.3 3.4 2.5c.6.4 1.4.3 1.8-.3.2-.3.3-.5.3-.8v-8.8a8 8 0 0 0 3.1-5.6 8 8 0 0 0-1.8-6.2 8.3 8.3 0 0 0-6.7-3.2c-2.3 0-4.5.9-6.1 2.5zm8.9 18.7l-2.1-1.5c-.4-.3-1-.3-1.5 0l-2.1 1.5v-4.9a8 8 0 0 0 5.7 0v4.9zM50.4 42a6 6 0 0 1-6 5.9 6 6 0 0 1-6-5.9 6 6 0 0 1 6-5.9 6 6 0 0 1 6 5.9zM25.3 7.1h15.1v2.5H25.3zm3.2 4.1h8.8v2.5h-8.8zm-13.6 5.1h34.9v2.5H14.9zm0 4.1h34.9v2.5H14.9zm0 4h34.9v2.5H14.9zm0 4.1h34.9V31H14.9zm0 4.1h18.2v2.5H14.9zM16 47.3h6.7l.1-2.5H16zm0 4.1h6.7l.1-2.5H16zm0 4.1h6.7l.1-2.5H16z"/>
	</symbol>


	<symbol id="certificate" viewBox="0 0 64 100">
	 	<title>certificate</title>
		<path fill="#7F7F7F" d="M57.7 11.3h-8.2V8.5c0-2.2-1.7-3.9-3.9-3.9s-3.9 1.7-3.9 3.9v2.7H22.5V8.5c0-2.2-1.7-3.9-3.9-3.9s-3.9 1.7-3.9 3.9v2.7H6.4a2.6 2.6 0 0 0-2.6 2.6v42.9c0 1.5 1.2 2.6 2.6 2.6h51.2c1.5 0 2.6-1.2 2.6-2.6V13.8c0-1.3-1.2-2.5-2.5-2.5zm0 14.6v30.9l-.1.1-51.3-.1V25.9h51.4zM20 16.6c0 .8-.6 1.5-1.5 1.5-.8 0-1.5-.6-1.5-1.5v-8c0-.8.6-1.5 1.5-1.5.8 0 1.5.6 1.5 1.5v8zm26.9 0c0 .8-.6 1.5-1.5 1.5s-1.4-.7-1.4-1.5v-8c0-.8.6-1.5 1.5-1.5.8 0 1.5.6 1.5 1.5v8zm-28.4 3.9c2.2 0 3.9-1.7 3.9-3.9v-2.7h19.1v2.7c0 2.2 1.7 3.9 3.9 3.9s3.9-1.7 3.9-3.9v-2.7l8.3.1v9.5H6.3l.1-9.6h8.2v2.7c0 2.2 1.7 3.9 3.9 3.9z"/>	
	</symbol>	

	<symbol id="shipping" viewBox="0 0 100 100">
	 	<title>shipping</title>
  	<path fill="#7F7F7F" d="M106.2 42.7L105.1 31c-.3-2.2-1.9-4-4-4.6l-5-1.3L93 14.9a5.4 5.4 0 0 0-5.3-4.6l-14.9-1V6.1c0-.7-.5-1.3-1.4-1.3H32.6c-.7 0-1.4.5-1.4 1.3 0 .7.5 1.3 1.4 1.3h37.6v35.4H17.6c-.7 0-1.4.5-1.4 1.3 0 .7.5 1.3 1.4 1.3H26a8 8 0 0 0-2.3 6.8 8 8 0 0 0 8.1 6.5c.4 0 .9 0 1.3-.2 2.1-.3 4-1.3 5.4-3.1.6-.8 1.1-1.8 1.4-3h39.9l.6-.2c.3 2 1.4 3.7 3.2 5 1.4 1 3 1.4 4.7 1.4.4 0 .9 0 1.3-.2a7.9 7.9 0 0 0 6.9-8.9 7.6 7.6 0 0 0-2.3-4.2h7.8c.9 0 3-.1 4-1.3.2-.3.4-.9.2-1.3zM93.6 26.4c.2.5.5.9 1 .9l5.7 1.5c1.1.3 1.9 1.1 2.1 2.4l1.4 11.1c-.3.2-.7.4-1.6.4H72.9V11.9l14.7 1c1.3.1 2.5 1.1 2.6 2.3v.2l3.4 11zm-10.8 19c-.4.3-.6.6-.8 1-.7 1-1.2 2.2-1.4 3.5l-.6-.1H40v-.2a7.6 7.6 0 0 0-2.3-4.2h45.1zm10 8.5a5.3 5.3 0 0 1-3.5 2.1c-1.3.3-2.8-.1-4.1-.9a5.3 5.3 0 0 1-2.2-3.3c-.3-1.2.1-2.6 1-3.9a5.3 5.3 0 0 1 3.5-2.1l.4-.1.5-.1c1 0 2 .3 3.2.9 1.2 1.1 1.9 2.4 2.2 3.5s-.1 2.6-1 3.9zm-66.4-2.3c-.3-1.3 0-2.5.8-3.7.8-1.2 2.2-2 3.7-2.3l.4-.1.5-.1c2.6 0 4.9 1.8 5.3 4.3.3 1.2-.1 2.6-1 3.9-.8 1.1-2 1.9-3.5 2.2-2.9.7-5.6-1.3-6.2-4.2z"/>
  	<path fill="#7F7F7F" d="M23.3 20.1h24.1c.7 0 1.4-.4 1.4-1.1 0-.7-.5-1.1-1.4-1.1H23.3c-.9 0-1.4.4-1.4 1.1 0 .6.6 1.1 1.4 1.1zm20.2 11.2c0-.5-.5-1.1-1.4-1.1H12.8c-.7 0-1.4.4-1.4 1.1s.5 1.1 1.4 1.1h29.3c.8-.1 1.4-.5 1.4-1.1z"/>
	</symbol>	 

	<symbol id="payment" viewBox="0 0 64 100">
	 	<title>payment</title>
  	<path fill="#7F7F7F" d="M77.2 37.1V32a5 5 0 0 0-2.1-4.1 9.7 9.7 0 0 0-6-1.4c-2.7 0-4.6.4-6 1.4A5 5 0 0 0 61 32v5.1c-2 .9-3.4 2.9-3.4 5.1V54c0 3.1 2.5 5.6 5.6 5.6H75c3.1 0 5.6-2.5 5.6-5.6V42.2a5.9 5.9 0 0 0-3.4-5.1zM74.9 57H63.1a2.9 2.9 0 0 1-2.9-2.9v-12c0-1.6 1.2-2.9 2.9-2.9H75c1.6 0 2.9 1.2 2.9 2.9V54c-.1 1.7-1.4 3-3 3zm-6-27.9c2.6 0 3.8.5 4.5 1 .7.4 1 1.1 1 1.9v4.6H63.5V32c0-.9.3-1.4 1-1.9.6-.4 1.9-1 4.4-1z"/>
  	<path fill="#7F7F7F" d="M52 48.4H12.1a2.9 2.9 0 0 1-2.9-2.9V17.3h58.4V21c0 .4.2.7.4 1 .3.3.6.4 1 .4s.7-.2 1-.4c.3-.3.4-.6.4-1V10c0-3.1-2.5-5.6-5.6-5.6H12.1A5.5 5.5 0 0 0 6.5 10v35.6c0 3.1 2.5 5.6 5.6 5.6H52c.4 0 .7-.2 1-.4.3-.3.4-.6.4-1s-.2-.7-.4-1l-1-.4zM12.1 7h52.7c1.6 0 2.9 1.2 2.9 2.9v4.6H9.2V10a3 3 0 0 1 2.9-3z"/>
	</symbol>

	<symbol id="instagram" viewBox="0 0 1000 1000">
	 	<title>instagram</title>
	 	<path fill="var(--color-svg)" dur="1s" d="M499 243a257 257 0 1 0 1 514 257 257 0 0 0-1-514zm0 415a159 159 0 1 1 0-318 159 159 0 0 1 0 318zM709 5H289A285 285 0 0 0 5 290v419c0 157 127 285 284 285h420c157 0 285-128 285-285V290C994 133 866 5 709 5zm187 704c0 103-84 187-187 187H289c-103 0-186-84-186-187V290c0-103 83-187 186-187h420c103 0 187 84 187 187v419zM760 169a67 67 0 1 0 0 134 67 67 0 0 0 0-134z"/>
	</symbol>	

	<symbol id="vk" viewBox="0 0 1000 1000">
	 	<title>vk</title>
	 	<path fill="var(--color-svg)" d="M491 747h52s16-1 24-10c7-8 7-23 7-23s-1-70 32-80c32-11 73 67 117 97 33 23 58 18 58 18l117-2s61-3 32-51c-3-4-17-36-87-101-73-68-64-57 25-174 53-72 75-116 68-135-6-17-46-13-46-13l-131 1s-10-1-17 3-12 14-12 14-21 56-48 103c-59 99-82 105-92 98-22-14-17-57-17-88 0-97 15-137-28-147-15-4-25-6-62-6-47-1-86 0-109 11-15 7-26 24-19 24 8 2 28 6 38 20 14 18 13 59 13 59s8 114-18 128c-17 10-42-10-94-100-27-46-47-98-47-98s-4-9-11-14c-8-6-20-8-20-8H91s-19 1-26 9c-6 7 0 22 0 22s98 229 209 345c101 105 217 98 217 98"/>
	</symbol>	

	<symbol id="google-plus" viewBox="0 0 1000 1000">
	 	<title>google-plus</title>
	 	<path fill="var(--color-svg)" d="M340.9 221.8C187 221.8 62.5 346.2 62.5 500.2S187 778.6 340.9 778.6c160.7 0 267.3-112.9 267.3-272 0-18.3 0-32.3-4.4-46.2H340.9V556h157.9c-6.4 40.8-47.8 120-157.9 120-95 0-172.6-78.9-172.6-175.8s77.6-175.8 172.6-175.8c54.2 0 90.4 23.1 110.9 43l75.7-72.7c-48.6-45.4-111.4-72.9-186.6-72.9zm437.5 159.1v79.5h-79.7V540h79.7v79.5h79.5V540h79.7v-79.7h-79.7v-79.5h-79.5z"/>
	</symbol>	

	<symbol id="facebook" viewBox="0 0 1000 1000">
	 	<title>facebook</title>
	 	<path fill="var(--color-svg)" d="M703.2 345.8H564.6V255c0-34.1 22.7-42.1 38.6-42.1h97.6V63l-134.6-.5C416.9 62.5 383 174.3 383 245.9v99.9h-86.4v154.4H383v437.2h181.7V500.3h122.6l15.9-154.5z"/>
	</symbol>			

</svg>