<svg xmlns="http://www.w3.org/2000/svg" xmlns:xlink="http://www.w3.org/1999/xlink">

	<symbol id="VK" viewBox="0 0 1000 1000">
		<title>VK</title>
		<path
			d="M491 747h52s16-1 24-10c7-8 7-23 7-23s-1-70 32-80c32-11 73 67 117 97 33 23 58 18 58 18l117-2s61-3 32-51c-3-4-17-36-87-101-73-68-64-57 25-174 53-72 75-116 68-135-6-17-46-13-46-13l-131 1s-10-1-17 3-12 14-12 14-21 56-48 103c-59 99-82 105-92 98-22-14-17-57-17-88 0-97 15-137-28-147-15-4-25-6-62-6-47-1-86 0-109 11-15 7-26 24-19 24 8 2 28 6 38 20 14 18 13 59 13 59s8 114-18 128c-17 10-42-10-94-100-27-46-47-98-47-98s-4-9-11-14c-8-6-20-8-20-8H91s-19 1-26 9c-6 7 0 22 0 22s98 229 209 345c101 105 217 98 217 98"
		/>
	</symbol>

	<symbol id="Telegram" viewBox="0 0 456 456">
	 	<title>Telegram</title>
		<path
			d="M359 101L54 219c-10 4-9 18 1 21l77 23 29 92c3 10 15 12 23 5l40-41 78 58c10 7 23 2 26-10l52-249c2-12-10-22-21-17zm-38 55L179 281l-2 5-6 48c0 2-2 2-3 1l-22-73c-1-3 0-7 3-8l167-104c4-2 8 3 5 6z"
		/>
	</symbol>

	<symbol id="Whatsapp" viewBox="0 0 1000 1000">
		<title>Whatsapp</title>
		<path
			 d="M1000 487a489 489 0 0 1-728 427L0 1000l89-261A489 489 0 0 1 510 0c270 0 490 218 490 487zM509 78A412 412 0 0 0 96 487c0 90 30 173 79 240l-52 152 159-50a413 413 0 0 0 640-342c0-226-185-409-413-409zm248 521c-3-5-11-8-23-14l-82-38c-11-4-19-6-27 6s-31 38-38 46-14 9-27 3c-12-6-50-18-96-59-36-32-60-71-67-83s-1-18 5-24l18-21c6-7 8-12 12-20s2-15-1-21l-37-88c-10-24-20-20-27-20l-23-1c-8 0-21 3-32 15s-42 41-42 99c0 59 43 116 49 124s83 132 205 180 123 32 145 30 71-29 81-57 10-52 7-57z"
		 />
	</symbol>

	<symbol id="Email" viewBox="0 0 483.3 483.3">
	 	<title>Email</title>
		<path
			d="M424.3 57.75H59.1c-32.6 0-59.1 26.5-59.1 59.1v249.6c0 32.6 26.5 59.1 59.1 59.1h365.1c32.6 0 59.1-26.5 59.1-59.1v-249.5c.1-32.6-26.4-59.2-59-59.2zm32.1 308.7c0 17.7-14.4 32.1-32.1 32.1H59.1c-17.7 0-32.1-14.4-32.1-32.1v-249.5c0-17.7 14.4-32.1 32.1-32.1h365.1c17.7 0 32.1 14.4 32.1 32.1v249.5h.1z"
		/>
		<path
			d="M304.8 238.55l118.2-106c5.5-5 6-13.5 1-19.1-5-5.5-13.5-6-19.1-1l-163 146.3-31.8-28.4c-.1-.1-.2-.2-.2-.3-.7-.7-1.4-1.3-2.2-1.9L78.3 112.35c-5.6-5-14.1-4.5-19.1 1.1-5 5.6-4.5 14.1 1.1 19.1l119.6 106.9-119.1 111.5c-5.4 5.1-5.7 13.6-.6 19.1 2.7 2.8 6.3 4.3 9.9 4.3 3.3 0 6.6-1.2 9.2-3.6l120.9-113.1 32.8 29.3c2.6 2.3 5.8 3.4 9 3.4s6.5-1.2 9-3.5l33.7-30.2 120.2 114.2c2.6 2.5 6 3.7 9.3 3.7 3.6 0 7.1-1.4 9.8-4.2 5.1-5.4 4.9-14-.5-19.1l-118.7-112.7z"
		/>
	</symbol>

</svg>
